HIERARCHY
ROOT hip
{
  OFFSET 0 0 0
  CHANNELS 6 Xposition Yposition Zposition Zrotation Yrotation Xrotation
  JOINT abdomen
  {
    OFFSET 0 20.6881 -0.73152
    CHANNELS 3 Zrotation Xrotation Yrotation
    JOINT chest
    {
      OFFSET 0 11.7043 -0.48768
      CHANNELS 3 Zrotation Xrotation Yrotation
      JOINT neck
      {
        OFFSET 0 22.1894 -2.19456
        CHANNELS 3 Zrotation Xrotation Yrotation
        JOINT head
        {
          OFFSET -0.24384 7.07133 1.2192
          CHANNELS 3 Zrotation Xrotation Yrotation
          JOINT leftEye
          {
            OFFSET 4.14528 8.04674 8.04672
            CHANNELS 3 Zrotation Xrotation Yrotation
            End Site
            {
              OFFSET 1 0 0
            }
          }
          JOINT rightEye
          {
            OFFSET -3.6576 8.04674 8.04672
            CHANNELS 3 Zrotation Xrotation Yrotation
            End Site
            {
              OFFSET 1 0 0
            }
          }
        }
      }
      JOINT rCollar
      {
        OFFSET -2.68224 19.2634 -4.8768
        CHANNELS 3 Zrotation Xrotation Yrotation
        JOINT rShldr
        {
          OFFSET -8.77824 -1.95073 1.46304
          CHANNELS 3 Zrotation Xrotation Yrotation
          JOINT rForeArm
          {
            OFFSET -28.1742 -1.7115 0.48768
            CHANNELS 3 Zrotation Xrotation Yrotation
            JOINT rHand
            {
              OFFSET -22.5879 0.773209 7.07136
              CHANNELS 3 Zrotation Xrotation Yrotation
              JOINT rThumb1
              {
                OFFSET -1.2192 -0.487915 3.41376
                CHANNELS 3 Zrotation Xrotation Yrotation
                JOINT rThumb2
                {
                  OFFSET -3.37035 -0.52449 3.41376
                  CHANNELS 3 Zrotation Xrotation Yrotation
                  End Site
                  {
                    OFFSET -1.78271 -1.18214 1.43049
                  }
                }
              }
              JOINT rIndex1
              {
                OFFSET -7.75947 0.938293 5.60832
                CHANNELS 3 Zrotation Xrotation Yrotation
                JOINT rIndex2
                {
                  OFFSET -2.54057 -0.884171 1.56538
                  CHANNELS 3 Zrotation Xrotation Yrotation
                  End Site
                  {
                    OFFSET -1.62519 -0.234802 1.16502
                  }
                }
              }
              JOINT rMid1
              {
                OFFSET -8.24714 1.18213 3.41376
                CHANNELS 3 Zrotation Xrotation Yrotation
                JOINT rMid2
                {
                  OFFSET -3.10165 -0.590103 1.0647
                  CHANNELS 3 Zrotation Xrotation Yrotation
                  End Site
                  {
                    OFFSET -2.48547 -0.328903 0.83742
                  }
                }
              }
              JOINT rRing1
              {
                OFFSET -8.82822 0.546677 1.51678
                CHANNELS 3 Zrotation Xrotation Yrotation
                JOINT rRing2
                {
                  OFFSET -2.60934 -0.819778 -0.0198488
                  CHANNELS 3 Zrotation Xrotation Yrotation
                  End Site
                  {
                    OFFSET -2.33842 -0.294052 0.168128
                  }
                }
              }
              JOINT rPinky1
              {
                OFFSET -8.27202 -0.0477905 -0.4584
                CHANNELS 3 Zrotation Xrotation Yrotation
                JOINT rPinky2
                {
                  OFFSET -1.82734 -0.647385 -0.700984
                  CHANNELS 3 Zrotation Xrotation Yrotation
                  End Site
                  {
                    OFFSET -1.69225 -0.51767 -0.607171
                  }
                }
              }
            }
          }
        }
      }
      JOINT lCollar
      {
        OFFSET 2.68224 19.2634 -4.8768
        CHANNELS 3 Zrotation Xrotation Yrotation
        JOINT lShldr
        {
          OFFSET 8.77824 -1.95073 1.46304
          CHANNELS 3 Zrotation Xrotation Yrotation
          JOINT lForeArm
          {
            OFFSET 28.1742 -1.7115 0.48768
            CHANNELS 3 Zrotation Xrotation Yrotation
            JOINT lHand
            {
              OFFSET 22.5879 0.773209 7.07136
              CHANNELS 3 Zrotation Xrotation Yrotation
              JOINT lThumb1
              {
                OFFSET 1.2192 -0.487915 3.41376
                CHANNELS 3 Zrotation Xrotation Yrotation
                JOINT lThumb2
                {
                  OFFSET 3.37035 -0.52449 3.41376
                  CHANNELS 3 Zrotation Xrotation Yrotation
                  End Site
                  {
                    OFFSET 1.78271 -1.18214 1.43049
                  }
                }
              }
              JOINT lIndex1
              {
                OFFSET 7.75947 0.938293 5.60832
                CHANNELS 3 Zrotation Xrotation Yrotation
                JOINT lIndex2
                {
                  OFFSET 2.54057 -0.884171 1.56538
                  CHANNELS 3 Zrotation Xrotation Yrotation
                  End Site
                  {
                    OFFSET 1.62519 -0.234802 1.16502
                  }
                }
              }
              JOINT lMid1
              {
                OFFSET 8.24714 1.18213 3.41376
                CHANNELS 3 Zrotation Xrotation Yrotation
                JOINT lMid2
                {
                  OFFSET 3.10165 -0.590103 1.0647
                  CHANNELS 3 Zrotation Xrotation Yrotation
                  End Site
                  {
                    OFFSET 2.48547 -0.328903 0.83742
                  }
                }
              }
              JOINT lRing1
              {
                OFFSET 8.82822 0.546677 1.51678
                CHANNELS 3 Zrotation Xrotation Yrotation
                JOINT lRing2
                {
                  OFFSET 2.60934 -0.819778 -0.0198488
                  CHANNELS 3 Zrotation Xrotation Yrotation
                  End Site
                  {
                    OFFSET 2.33842 -0.294052 0.168128
                  }
                }
              }
              JOINT lPinky1
              {
                OFFSET 8.27202 -0.0477905 -0.4584
                CHANNELS 3 Zrotation Xrotation Yrotation
                JOINT lPinky2
                {
                  OFFSET 1.82734 -0.647385 -0.700984
                  CHANNELS 3 Zrotation Xrotation Yrotation
                  End Site
                  {
                    OFFSET 1.69225 -0.51767 -0.607171
                  }
                }
              }
            }
          }
        }
      }
    }
  }
  JOINT rButtock
  {
    OFFSET -8.77824 4.35084 1.2192
    CHANNELS 3 Zrotation Xrotation Yrotation
    JOINT rThigh
    {
      OFFSET 0 -1.70687 -2.19456
      CHANNELS 3 Zrotation Xrotation Yrotation
      JOINT rShin
      {
        OFFSET 0 -36.8199 0.73152
        CHANNELS 3 Zrotation Xrotation Yrotation
        JOINT rFoot
        {
          OFFSET 0.73152 -45.1104 -5.12064
          CHANNELS 3 Zrotation Xrotation Yrotation
          End Site
          {
            OFFSET -1.1221 -3.69964 12.103
          }
        }
      }
    }
  }
  JOINT lButtock
  {
    OFFSET 8.77824 4.35084 1.2192
    CHANNELS 3 Zrotation Xrotation Yrotation
    JOINT lThigh
    {
      OFFSET 0 -1.70687 -2.19456
      CHANNELS 3 Zrotation Xrotation Yrotation
      JOINT lShin
      {
        OFFSET 0 -36.8199 0.73152
        CHANNELS 3 Zrotation Xrotation Yrotation
        JOINT lFoot
        {
          OFFSET -0.73152 -45.1104 -5.12064
          CHANNELS 3 Zrotation Xrotation Yrotation
          End Site
          {
            OFFSET 1.1221 -3.69964 12.103
          }
        }
      }
    }
  }
}
MOTION
Frames:	4
Frame Time:	0.00833333
23.5987 85.0295 126.802 540.366 5.8758 -147.165 1.46755 -39.5565 -6.15722 0.0806116 -6.3391 1.07869 -15.0596 8.26638 -13.1569 11.4587 4.00007 -21.7394 -0.0 0.0 0.0 -0.0 0.0 0.0 1.0131e-13 -2.74226e-13 3.91342e-13 61.1353 28.844 9.81162 -15.452 -8.18787 28.5241 -0.200408 12.6511 1.80776 -1.22171e-09 1.79656e-09 5.88772e-11 -2.1058e-09 3.09135e-09 1.1422e-10 -1.22171e-09 1.79656e-09 5.88589e-11 7.73091 5.47488 0.417314 -1.22171e-09 1.79656e-09 5.88739e-11 2.90554 0.965183 0.102902 -1.22171e-09 1.79656e-09 5.8876e-11 10.2786 0.731801 0.0259123 -1.22171e-09 1.79656e-09 5.88856e-11 2.22167 -0.733487 -0.20892 1.01259e-13 -2.74221e-13 3.91159e-13 -70.2102 -5.83576 24.2761 14.9404 -7.73898 -27.4655 0.241631 -13.8569 1.98678 -1.32671e-09 -3.33849e-09 5.32369e-10 -2.3047e-09 -5.78353e-09 9.12919e-10 -1.32671e-09 -3.33849e-09 5.32379e-10 -7.73091 5.47488 -0.417314 -1.32671e-09 -3.33849e-09 5.3237e-10 -2.90554 0.965183 -0.102902 -1.32671e-09 -3.33849e-09 5.32375e-10 -10.2786 0.731801 -0.0259123 -1.32671e-09 -3.33849e-09 5.32368e-10 -2.22167 -0.733487 0.20892 -2.03217e-16 0.0 -3.88251e-19 6.65724 -39.0237 7.24581 -0.162113 28.9138 0.513575 -2.56189 -15.0878 -6.18724 2.03217e-16 0.0 3.88251e-19 -8.49601 -62.3856 -26.4129 0.0908414 19.7392 0.0660849 0.843937 3.00638 23.8246
23.4381 84.9468 126.021 540.267 6.0175 -147.177 1.31148 -39.6415 -6.22937 0.14404 -6.36249 1.08499 -15.0889 8.2599 -13.1715 11.5801 3.97662 -21.7747 -0.0 0.0 0.0 -0.0 0.0 0.0 9.89009e-14 -3.36856e-13 5.20988e-13 61.363 28.7583 9.70735 -15.4774 -8.21057 28.577 -0.199302 12.6167 1.80269 -2.0922e-09 4.03777e-09 -1.74965e-10 -3.61245e-09 6.96827e-09 -2.8097e-10 -2.0922e-09 4.03777e-09 -1.74984e-10 7.73091 5.47488 0.417314 -2.0922e-09 4.03777e-09 -1.74968e-10 2.90554 0.965183 0.102902 -2.0922e-09 4.03776e-09 -1.74965e-10 10.2786 0.731801 0.0259123 -2.0922e-09 4.03777e-09 -1.74955e-10 2.22167 -0.733487 -0.20892 9.88839e-14 -3.3685e-13 5.20823e-13 -70.0914 -5.99288 24.4072 14.8427 -7.65501 -27.2652 0.232476 -13.5976 1.94815 -8.74998e-10 -4.41585e-09 1.19728e-09 -1.53363e-09 -7.65971e-09 2.07071e-09 -8.75001e-10 -4.41585e-09 1.19729e-09 -7.73091 5.47488 -0.417314 -8.75e-10 -4.41585e-09 1.19728e-09 -2.90554 0.965183 -0.102902 -8.75005e-10 -4.41585e-09 1.19729e-09 -10.2786 0.731801 -0.0259123 -8.75e-10 -4.41585e-09 1.19728e-09 -2.22167 -0.733487 0.20892 -2.03217e-16 0.0 -3.88251e-19 6.43174 -38.7082 7.36867 -0.164133 29.2461 0.529014 -2.62659 -15.2165 -6.32416 2.03217e-16 0.0 3.88251e-19 -8.51726 -62.5618 -25.0193 0.0976713 20.3205 0.0656372 0.313172 4.29917 22.0808
23.2572 84.8896 125.242 540.096 6.1745 -147.187 1.01633 -39.7161 -6.37071 0.238255 -6.39914 1.09013 -15.1198 8.2542 -13.1885 11.7079 3.9457 -21.815 -0.0 0.0 0.0 -0.0 0.0 0.0 9.14381e-14 -3.38731e-13 5.91732e-13 61.628 28.6541 9.52973 -15.4983 -8.22928 28.6205 -0.198998 12.6073 1.8013 -2.63696e-09 5.80718e-09 -4.71676e-10 -4.55727e-09 1.0033e-08 -7.88113e-10 -2.63696e-09 5.80718e-09 -4.71695e-10 7.73091 5.47488 0.417314 -2.63696e-09 5.80718e-09 -4.71679e-10 2.90554 0.965183 0.102902 -2.63696e-09 5.80718e-09 -4.71676e-10 10.2786 0.731801 0.0259123 -2.63696e-09 5.80718e-09 -4.71667e-10 2.22167 -0.733487 -0.20892 9.14497e-14 -3.38727e-13 5.91583e-13 -69.9931 -6.14751 24.5131 14.7492 -7.57508 -27.0739 0.221763 -13.2934 1.90288 -3.92636e-10 -4.7311e-09 1.75955e-09 -7.06247e-10 -8.21314e-09 3.04942e-09 -3.92641e-10 -4.7311e-09 1.75955e-09 -7.73091 5.47488 -0.417314 -3.92639e-10 -4.7311e-09 1.75954e-09 -2.90554 0.965183 -0.102902 -3.92644e-10 -4.7311e-09 1.75955e-09 -10.2786 0.731801 -0.0259123 -3.9264e-10 -4.7311e-09 1.75954e-09 -2.22167 -0.733487 0.20892 -2.03217e-16 0.0 -3.88251e-19 6.13722 -38.4659 7.51465 -0.167437 29.6616 0.545023 -2.70019 -15.2705 -6.49752 2.03217e-16 0.0 3.88251e-19 -8.77373 -62.6857 -24.0974 0.104455 20.8707 0.0675119 -0.0979127 5.47753 20.6373
23.0574 84.8572 124.466 539.849 6.338 -147.189 0.524135 -39.7963 -6.61393 0.378606 -6.45834 1.09522 -15.1482 8.25614 -13.2046 11.8341 3.90877 -21.8542 -0.0 0.0 0.0 -0.0 0.0 0.0 7.74771e-14 -2.38653e-13 5.85752e-13 61.9292 28.548 9.27299 -15.5168 -8.24583 28.659 -0.199355 12.6177 1.80284 -2.76703e-09 7.21152e-09 -9.53618e-10 -4.78809e-09 1.24738e-08 -1.61954e-09 -2.76703e-09 7.21151e-09 -9.53638e-10 7.73091 5.47488 0.417314 -2.76703e-09 7.21151e-09 -9.53621e-10 2.90554 0.965183 0.102902 -2.76703e-09 7.21151e-09 -9.53619e-10 10.2786 0.731801 0.0259123 -2.76704e-09 7.21152e-09 -9.53611e-10 2.22167 -0.733487 -0.20892 7.75117e-14 -2.38653e-13 5.85617e-13 -69.9125 -6.31314 24.6093 14.6573 -7.4973 -26.8861 0.208698 -12.9155 1.84678 2.20989e-10 -3.85161e-09 2.28763e-09 3.5219e-10 -6.69413e-09 3.96752e-09 2.20984e-10 -3.85161e-09 2.28764e-09 -7.73091 5.47488 -0.417314 2.20986e-10 -3.85161e-09 2.28763e-09 -2.90554 0.965183 -0.102902 2.20981e-10 -3.85161e-09 2.28764e-09 -10.2786 0.731801 -0.0259123 2.20985e-10 -3.85161e-09 2.28763e-09 -2.22167 -0.733487 0.20892 -2.03217e-16 0.0 -3.88251e-19 5.74325 -38.3009 7.71589 -0.171895 30.137 0.561365 -2.79583 -15.241 -6.74507 2.03217e-16 0.0 3.88251e-19 -9.4192 -62.7345 -23.9881 0.11097 21.3282 0.0753235 -0.446116 6.5894 19.6746
